<?xml version="1.0" encoding="UTF-8"?><svg id="Layer_1" xmlns="http://www.w3.org/2000/svg" xmlns:xlink="http://www.w3.org/1999/xlink" viewBox="0 0 1024 128"><defs><style>.cls-1{fill:url(#linear-gradient);}.cls-2{letter-spacing:-.1em;}.cls-3{letter-spacing:-.08em;}.cls-4{letter-spacing:-.01em;}.cls-5{font-family:SolPro-Regular, 'Sol Pro';font-size:108px;}.cls-6{letter-spacing:.02em;}</style><linearGradient id="linear-gradient" x1="35.01" y1="57.03" x2="988.53" y2="57.03" gradientUnits="userSpaceOnUse"><stop offset=".03" stop-color="#843092"/><stop offset=".49" stop-color="#0e4c90"/><stop offset=".58" stop-color="#0f5296"/><stop offset=".71" stop-color="#1064a5"/><stop offset=".86" stop-color="#1380bf"/><stop offset=".99" stop-color="#16a0db"/></linearGradient></defs><text class="cls-5" transform="translate(29.61 100.18)"><tspan x="0" y="0">SUBS</tspan><tspan class="cls-3" x="281.23" y="0">P</tspan><tspan class="cls-4" x="344.52" y="0">A</tspan><tspan x="414.93" y="0">CE </tspan><tspan class="cls-6" x="578.44" y="0">L</tspan><tspan class="cls-2" x="642.81" y="0">A</tspan><tspan x="703.5" y="0">TTICE</tspan></text><path class="cls-1" d="M73.68,53.42c10.26,0,17.17,4.75,17.17,15.66v15.66c0,11.02-6.91,15.44-17.17,15.44h-38.12v-7.13h36.18c7.34,0,11.66-2.59,11.66-10.58v-11.34c0-7.88-4.32-10.48-11.66-10.48h-19.55c-10.37,0-17.17-4.64-17.17-15.66v-13.61c0-11.02,6.8-15.44,17.17-15.44h38.12v7.13h-36.18c-7.34,0-11.77,2.7-11.77,10.58v9.29c0,7.88,4.43,10.48,11.77,10.48h19.55Z"/><path class="cls-1" d="M110.61,82.68c0,7.67,4.32,10.37,11.99,10.37h21.92c7.67,0,11.99-2.7,11.99-10.37V15.94h7.34v68.26c0,10.91-6.16,15.98-16.63,15.98h-27.11c-10.48,0-16.85-5.08-16.85-15.98V15.94h7.34v66.75Z"/><path class="cls-1" d="M238.16,84.74c0,11.02-6.8,15.44-17.17,15.44h-42.55V15.94h42.55c10.37,0,17.17,4.64,17.17,15.66v13.61c0,6.7-2.81,10.26-6.8,12.42,3.89,2.16,6.8,5.94,6.8,12.53v14.58ZM185.78,23.07v30.67h33.7c7.24,0,11.34-2.92,11.34-10.48v-9.61c0-7.88-4.43-10.58-11.77-10.58h-33.26ZM185.78,60.98v32.08h33.26c7.34,0,11.77-2.59,11.77-10.58v-10.8c0-7.78-4.21-10.58-11.34-10.69h-33.7Z"/><path class="cls-1" d="M288.27,53.42c10.26,0,17.17,4.75,17.17,15.66v15.66c0,11.02-6.91,15.44-17.17,15.44h-38.12v-7.13h36.18c7.34,0,11.66-2.59,11.66-10.58v-11.34c0-7.88-4.32-10.48-11.66-10.48h-19.55c-10.37,0-17.17-4.64-17.17-15.66v-13.61c0-11.02,6.8-15.44,17.17-15.44h38.12v7.13h-36.18c-7.34,0-11.77,2.7-11.77,10.58v9.29c0,7.88,4.43,10.48,11.77,10.48h19.55Z"/><path class="cls-1" d="M378.45,51.15c0,10.8-5.18,17.06-17.17,17.06h-35.53v31.97h-7.34V15.94h42.88c10.26,0,17.17,4.64,17.17,15.66v19.55ZM325.74,23.07v38.02h33.59c7.34,0,11.66-2.59,11.66-10.58v-16.85c0-7.88-4.32-10.58-11.66-10.58h-33.59Z"/><path class="cls-1" d="M374.13,100.18l30.56-81.65c1.19-3.35,3.02-4.64,5.29-4.64s4.1,1.3,5.29,4.64l30.35,81.65h-7.45l-8.32-21.71h-39.96l-8.32,21.71h-7.45ZM409.88,25.23l-17.71,46.44h35.42l-17.71-46.44Z"/><path class="cls-1" d="M470.14,23.07c-7.34,0-11.77,2.7-11.77,10.58v48.82c0,7.99,4.43,10.58,11.77,10.58h36.5v7.13h-38.45c-10.37,0-17.17-4.43-17.17-15.44V31.6c0-11.02,6.8-15.66,17.17-15.66h38.45v7.13h-36.5Z"/><path class="cls-1" d="M524.79,61.52v20.95c0,7.99,4.43,10.58,11.77,10.58h35.1v7.13h-37.04c-10.37,0-17.17-4.43-17.17-15.44V31.6c0-11.02,6.8-15.66,17.17-15.66h37.04v7.13h-35.1c-7.34,0-11.77,2.7-11.77,10.58v20.63h46.22v7.24h-46.22Z"/><path class="cls-1" d="M615.07,84.74V15.94h7.34v66.53c0,7.99,4.43,10.58,11.77,10.58h36.07v7.13h-38.02c-10.37,0-17.17-4.43-17.17-15.44Z"/><path class="cls-1" d="M672.42,100.18l30.56-81.65c1.19-3.35,3.02-4.64,5.29-4.64s4.1,1.3,5.29,4.64l30.35,81.65h-7.45l-8.32-21.71h-39.96l-8.32,21.71h-7.45ZM708.17,25.23l-17.71,46.44h35.42l-17.71-46.44Z"/><path class="cls-1" d="M763.35,23.07v77.11h-7.34V23.07h-22.9v-7.13h52.92v7.13h-22.68Z"/><path class="cls-1" d="M816.27,23.07v77.11h-7.34V23.07h-22.9v-7.13h52.92v7.13h-22.68Z"/><path class="cls-1" d="M853.85,100.18h-7.34V15.94h7.34v84.24Z"/><path class="cls-1" d="M887.01,23.07c-7.34,0-11.77,2.7-11.77,10.58v48.82c0,7.99,4.43,10.58,11.77,10.58h36.5v7.13h-38.45c-10.37,0-17.17-4.43-17.17-15.44V31.6c0-11.02,6.8-15.66,17.17-15.66h38.45v7.13h-36.5Z"/><path class="cls-1" d="M941.66,61.52v20.95c0,7.99,4.43,10.58,11.77,10.58h35.1v7.13h-37.04c-10.37,0-17.17-4.43-17.17-15.44V31.6c0-11.02,6.8-15.66,17.17-15.66h37.04v7.13h-35.1c-7.34,0-11.77,2.7-11.77,10.58v20.63h46.22v7.24h-46.22Z"/></svg>