<?xml version="1.0" encoding="UTF-8"?>
<svg id="Layer_1" data-name="Layer 1" xmlns="http://www.w3.org/2000/svg" viewBox="0 0 100 100">
  <defs>
    <style>
      .cls-1 {
        fill: #fff;
      }
    </style>
  </defs>
  <path class="cls-1" d="M22.54,60.72c.55,2.29-.49,3.41,1.75,4.41,1.55,1.03,2.15,2.95,2.72,4.63.97,2.93.96,6.17-.15,9.05-.49,1.35-1.19,2.62-2.08,3.75,3.07,1.34,6.45,1.68,9.74,2.08,7.12.73,14.4.82,21.49.64,5.45-.21,10.94-.44,16.27-1.7,1.03-.27,2.06-.57,3-1.09-2.72-3.3-3.69-7.95-2.45-12.05.55-1.84,1.13-3.86,2.64-5.15-19.8-8.95-30.41-8.33-52.91-4.58h0Z"/>
  <g>
    <path d="M49.88,87.87c-5.44,0-23.52-.29-27.63-3.97l-.05-.04-.03-.05c-.12-.18-.4-.63-.4-.98,0-.57.36-.98.65-1.32.1-.12.21-.24.3-.37,1.58-1.96,2.5-4.6,2.5-7.1,0-2.74-1.56-6.46-2.22-6.76-2.91-1.46-5.01-4.07-5.92-7.38l-3.72-29.2h-.34c-3.82,0-6.93-3.11-6.93-6.93s3.17-6.85,6.93-6.85,6.85,3.14,6.85,6.85c0,2.45-1.31,4.72-3.45,6.01l11.49,23.55,1.53-29.57c-3.37-.41-5.94-3.35-5.94-6.89,0-3.71,3.17-6.85,6.93-6.85s6.85,3.14,6.85,6.85c0,2.7-1.64,5.23-4.03,6.32l9.57,28.13,5.39-31.24c-2.9-.72-5.1-3.55-5.1-6.67,0-3.76,3.14-6.93,6.85-6.93s6.93,3.11,6.93,6.93c0,3.02-2.06,5.71-4.95,6.57l5.14,31.6,9.58-28.39c-2.38-1.06-3.95-3.54-3.95-6.33,0-3.71,3.14-6.85,6.85-6.85s6.93,3.14,6.93,6.85-2.6,6.48-6.01,6.89l1.6,29.56,11.32-23.52c-2.11-1.15-3.44-3.47-3.44-6.03,0-3.71,3.17-6.85,6.93-6.85s6.93,3.14,6.93,6.85-3.11,6.93-6.93,6.93h-.34l-3.63,29.13c-.46,3.04-2.67,5.82-5.92,7.44-.73.34-2.23,4.25-2.23,6.77s.91,5.11,2.63,7.13l.13.16c.31.37.69.84.69,1.5,0,.41-.35.79-.46.9-3.14,3.42-16.9,4.15-27.88,4.15ZM49.96,79.03c13.3,0,18.37,1.84,20.53,2.63.56.2.96.35,1.19.35.32,0,.91-.23.91-.68,0-.57-.1-.83-1.11-1.27-1.1-.48-7.3-2.86-21.53-2.86s-20.35,2.38-21.45,2.86c-1.02.43-1.11.69-1.11,1.27,0,.44.59.68.91.68.23,0,.63-.15,1.19-.35,2.16-.79,7.22-2.63,20.45-2.63ZM49.96,71.5c7.87,0,13.48,2,16.5,3.07,1.09.39,1.95.69,2.33.69.31,0,.83-.08.83-.6,0-.46-.33-.72-1.08-1.13-3.39-1.85-11.52-3.86-18.74-3.86s-14.93,1.99-18.35,3.86c-.74.41-1.07.67-1.07,1.13,0,.52.52.6.83.6.38,0,1.24-.31,2.33-.7,3.01-1.07,8.6-3.07,16.41-3.07ZM49.96,63.58c9.36,0,15.1,1.94,18.53,3.1,1.28.43,2.2.74,2.73.74.07,0,.68-.14.68-.6,0-.6-.58-1.01-.92-1.21-2.88-1.29-11.04-3.78-21.01-3.78s-18.05,2.49-20.97,3.8c-.3.17-.88.59-.88,1.19,0,.45.61.6.68.6.53,0,1.45-.31,2.73-.75,3.42-1.16,9.15-3.1,18.44-3.1Z"/>
    <path class="cls-1" d="M49.96,6.98c3.53,0,6.43,2.9,6.43,6.43,0,2.98-2.2,5.57-5.02,6.2l5.49,33.73h.16l10.27-30.43c-2.43-.86-4.08-3.29-4.08-6.04,0-3.45,2.9-6.35,6.35-6.35s6.43,2.9,6.43,6.35-2.67,6.27-6.04,6.43l1.73,31.84h.08l12.31-25.57c-2.12-.94-3.61-3.14-3.61-5.8,0-3.45,2.9-6.35,6.43-6.35s6.43,2.9,6.43,6.35-2.9,6.43-6.43,6.43h-.78l-3.69,29.57c-.47,3.14-2.82,5.65-5.65,7.06-1.02.47-2.51,4.71-2.51,7.22,0,2.75.94,5.33,2.75,7.45.31.39.71.78.71,1.33,0,.16-.16.39-.31.55-3.53,3.84-21.88,4-27.53,4-6.27,0-23.45-.39-27.29-3.84-.16-.24-.31-.55-.31-.71,0-.55.55-.94.86-1.41,1.65-2.04,2.59-4.78,2.59-7.37s-1.49-6.75-2.51-7.22c-2.82-1.41-4.78-3.92-5.65-7.06l-3.76-29.57h-.78c-3.53,0-6.43-2.9-6.43-6.43s2.9-6.35,6.43-6.35,6.35,2.9,6.35,6.35c0,2.51-1.49,4.71-3.61,5.8l12.47,25.57h.08l1.65-31.84c-3.29-.16-5.96-2.98-5.96-6.43h0c0-3.45,2.9-6.35,6.43-6.35s6.35,2.9,6.35,6.35c0,2.75-1.8,5.18-4.16,6.04l10.35,30.43,5.8-33.65c-2.9-.47-5.18-3.22-5.18-6.27,0-3.53,2.9-6.43,6.35-6.43M28.78,67.92c2.12,0,8.24-3.84,21.18-3.84s19.14,3.84,21.25,3.84c.31,0,1.18-.31,1.18-1.1s-.63-1.33-1.18-1.65c-3.14-1.41-11.45-3.84-21.25-3.84s-18.04,2.43-21.18,3.84c-.55.31-1.18.86-1.18,1.65s.86,1.1,1.18,1.1M31.22,75.76c1.65,0,8-3.76,18.75-3.76s17.18,3.76,18.82,3.76c.55,0,1.33-.24,1.33-1.1,0-.78-.63-1.18-1.33-1.57-3.29-1.8-11.37-3.92-18.98-3.92s-15.29,2.12-18.59,3.92c-.71.39-1.33.78-1.33,1.57,0,.86.78,1.1,1.33,1.1M28.31,82.51c1.41,0,4.71-2.98,21.65-2.98s20.31,2.98,21.73,2.98c.55,0,1.41-.39,1.41-1.18,0-.86-.31-1.25-1.41-1.73-1.8-.78-8.31-2.9-21.73-2.9s-19.84,2.12-21.65,2.9c-1.1.47-1.41.86-1.41,1.73,0,.78.86,1.18,1.41,1.18M49.96,5.98c-4.05,0-7.35,3.33-7.35,7.43,0,3.17,2.14,6.08,5.03,7.02l-4.98,28.86-8.8-25.86c2.35-1.26,3.92-3.84,3.92-6.58,0-3.99-3.37-7.35-7.35-7.35s-7.43,3.3-7.43,7.35c0,3.63,2.53,6.67,5.91,7.31l-1.41,27.19-10.44-21.41c2.06-1.41,3.31-3.71,3.31-6.19,0-3.99-3.37-7.35-7.35-7.35s-7.43,3.3-7.43,7.35,3.28,7.38,7.33,7.43l3.65,28.7v.07s.03.07.03.07c.95,3.44,3.14,6.17,6.16,7.69.61.44,1.96,3.87,1.96,6.32s-.88,4.91-2.37,6.74l-.03.04-.03.04c-.07.11-.17.21-.26.32-.33.38-.77.9-.77,1.65,0,.44.26.93.48,1.26l.07.1.09.08c4.12,3.7,20.93,4.1,27.96,4.1,16.12,0,25.63-1.45,28.27-4.32.15-.15.58-.64.58-1.23,0-.84-.47-1.4-.81-1.82l-.12-.14c-1.66-1.95-2.53-4.3-2.53-6.83,0-2.37,1.37-5.88,1.97-6.33,3.38-1.69,5.7-4.61,6.17-7.79l3.58-28.72c4.05-.05,7.33-3.37,7.33-7.43s-3.33-7.35-7.43-7.35-7.43,3.3-7.43,7.35c0,2.58,1.26,4.92,3.29,6.23l-10.28,21.35-1.47-27.17c3.43-.64,5.99-3.68,5.99-7.31,0-4.05-3.33-7.35-7.43-7.35s-7.35,3.37-7.35,7.35c0,2.82,1.51,5.35,3.84,6.58l-8.8,26.07-4.75-29.19c2.88-1.05,4.89-3.81,4.89-6.91,0-4.1-3.33-7.43-7.43-7.43h0ZM29.24,66.07c3.38-1.51,11.65-3.73,20.72-3.73,9.83,0,17.87,2.43,20.8,3.73.19.11.63.42.63.76-.02.02-.15.09-.22.1-.4,0-1.38-.33-2.52-.72-3.46-1.17-9.25-3.13-18.69-3.13s-15.15,1.96-18.6,3.12c-1.12.38-2.08.7-2.54.72-.08-.02-.19-.08-.22-.12,0-.32.45-.62.64-.74h0ZM30.88,74.7s0-.02,0-.03c0-.16.13-.31.82-.69,2.87-1.57,10.4-3.8,18.1-3.8,7.14,0,15.16,1.97,18.5,3.8.69.38.81.53.81.69,0,.04,0,.05,0,.05,0,0,0,0,0,0-.02,0-.15.05-.33.05-.29,0-1.24-.34-2.16-.67-3.04-1.08-8.71-3.1-16.67-3.1s-13.54,2.01-16.58,3.1c-.92.33-1.87.67-2.17.67-.16,0-.28-.04-.33-.07h0ZM28.31,81.51c-.15,0-.38-.11-.41-.18,0-.36,0-.46.81-.8,1.09-.47,7.2-2.82,21.25-2.82s20.24,2.35,21.33,2.82c.81.35.81.45.81.81-.04.07-.26.18-.41.18-.14,0-.61-.17-1.02-.32-2.19-.8-7.32-2.66-20.71-2.66s-18.44,1.86-20.62,2.66c-.41.15-.88.32-1.02.32h0Z"/>
  </g>
</svg>