<?xml version="1.0" encoding="UTF-8"?><svg id="Layer_1" xmlns="http://www.w3.org/2000/svg" xmlns:xlink="http://www.w3.org/1999/xlink" viewBox="0 0 500 540"><defs><style>.cls-1{fill:#111;}.cls-2{fill:#0a1018;}.cls-3{fill:#0b0e13;font-family:MyriadPro-Regular, 'Myriad Pro';}.cls-3,.cls-4{font-size:28px;isolation:isolate;}.cls-4{fill:#fff;font-family:AppleSymbols, 'Apple Symbols';}.cls-5{fill:url(#radial-gradient);}.cls-6{stroke:#a855f7;stroke-width:2px;}.cls-6,.cls-7{fill:none;}.cls-8{fill:#2a1a1a;}.cls-7{stroke:#444;}.cls-9{fill:#1a2a3a;}.cls-10{fill:#333;}.cls-11{fill:#222;}</style><radialGradient id="radial-gradient" cx="-4.38" cy="525.85" fx="-4.38" fy="525.85" r=".5" gradientTransform="translate(425 21304) scale(40 -40)" gradientUnits="userSpaceOnUse"><stop offset=".1" stop-color="#500"/><stop offset=".6" stop-color="#000"/></radialGradient></defs><rect class="cls-2" width="500" height="540"/><rect class="cls-10" x="16" y="36" width="468" height="468" rx="4" ry="4"/><rect class="cls-11" x="20" y="40" width="40" height="40"/><rect class="cls-7" x="20.5" y="40.5" width="39" height="39"/><rect class="cls-11" x="62" y="40" width="40" height="40"/><rect class="cls-7" x="62.5" y="40.5" width="39" height="39"/><rect class="cls-11" x="104" y="40" width="40" height="40"/><rect class="cls-7" x="104.5" y="40.5" width="39" height="39"/><rect class="cls-11" x="146" y="40" width="40" height="40"/><rect class="cls-7" x="146.5" y="40.5" width="39" height="39"/><rect class="cls-11" x="188" y="40" width="40" height="40"/><rect class="cls-7" x="188.5" y="40.5" width="39" height="39"/><rect class="cls-11" x="230" y="40" width="40" height="40"/><rect class="cls-7" x="230.5" y="40.5" width="39" height="39"/><rect class="cls-8" x="272" y="40" width="40" height="40"/><rect class="cls-7" x="272.5" y="40.5" width="39" height="39"/><rect class="cls-8" x="314" y="40" width="40" height="40"/><rect class="cls-7" x="314.5" y="40.5" width="39" height="39"/><rect class="cls-8" x="356" y="40" width="40" height="40"/><rect class="cls-7" x="356.5" y="40.5" width="39" height="39"/><rect class="cls-8" x="398" y="40" width="40" height="40"/><rect class="cls-7" x="398.5" y="40.5" width="39" height="39"/><rect class="cls-8" x="440" y="40" width="40" height="40"/><rect class="cls-7" x="440.5" y="40.5" width="39" height="39"/><rect class="cls-11" x="20" y="82" width="40" height="40"/><rect class="cls-7" x="20.5" y="82.5" width="39" height="39"/><rect class="cls-11" x="62" y="82" width="40" height="40"/><rect class="cls-7" x="62.5" y="82.5" width="39" height="39"/><rect class="cls-11" x="104" y="82" width="40" height="40"/><rect class="cls-7" x="104.5" y="82.5" width="39" height="39"/><rect class="cls-11" x="146" y="82" width="40" height="40"/><rect class="cls-7" x="146.5" y="82.5" width="39" height="39"/><rect class="cls-11" x="188" y="82" width="40" height="40"/><rect class="cls-7" x="188.5" y="82.5" width="39" height="39"/><rect class="cls-11" x="230" y="82" width="40" height="40"/><rect class="cls-7" x="230.5" y="82.5" width="39" height="39"/><rect class="cls-8" x="272" y="82" width="40" height="40"/><rect class="cls-7" x="272.5" y="82.5" width="39" height="39"/><rect class="cls-8" x="314" y="82" width="40" height="40"/><rect class="cls-7" x="314.5" y="82.5" width="39" height="39"/><rect class="cls-8" x="356" y="82" width="40" height="40"/><rect class="cls-7" x="356.5" y="82.5" width="39" height="39"/><rect class="cls-8" x="398" y="82" width="40" height="40"/><rect class="cls-7" x="398.5" y="82.5" width="39" height="39"/><text class="cls-3" transform="translate(409.57 97.99)"><tspan x="0" y="0">♚</tspan></text><rect class="cls-8" x="440" y="82" width="40" height="40"/><rect class="cls-7" x="440.5" y="82.5" width="39" height="39"/><rect class="cls-11" x="20" y="124" width="40" height="40"/><rect class="cls-7" x="20.5" y="124.5" width="39" height="39"/><rect class="cls-11" x="62" y="124" width="40" height="40"/><rect class="cls-7" x="62.5" y="124.5" width="39" height="39"/><rect class="cls-11" x="104" y="124" width="40" height="40"/><rect class="cls-7" x="104.5" y="124.5" width="39" height="39"/><rect class="cls-11" x="146" y="124" width="40" height="40"/><rect class="cls-7" x="146.5" y="124.5" width="39" height="39"/><rect class="cls-11" x="188" y="124" width="40" height="40"/><rect class="cls-7" x="188.5" y="124.5" width="39" height="39"/><rect class="cls-11" x="230" y="124" width="40" height="40"/><rect class="cls-7" x="230.5" y="124.5" width="39" height="39"/><rect class="cls-8" x="272" y="124" width="40" height="40"/><rect class="cls-7" x="272.5" y="124.5" width="39" height="39"/><rect class="cls-8" x="314" y="124" width="40" height="40"/><rect class="cls-7" x="314.5" y="124.5" width="39" height="39"/><rect class="cls-8" x="356" y="124" width="40" height="40"/><rect class="cls-7" x="356.5" y="124.5" width="39" height="39"/><rect class="cls-8" x="398" y="124" width="40" height="40"/><rect class="cls-7" x="398.5" y="124.5" width="39" height="39"/><rect class="cls-8" x="440" y="124" width="40" height="40"/><rect class="cls-7" x="440.5" y="124.5" width="39" height="39"/><rect class="cls-11" x="20" y="166" width="40" height="40"/><rect class="cls-7" x="20.5" y="166.5" width="39" height="39"/><rect class="cls-11" x="62" y="166" width="40" height="40"/><rect class="cls-7" x="62.5" y="166.5" width="39" height="39"/><rect class="cls-11" x="104" y="166" width="40" height="40"/><rect class="cls-7" x="104.5" y="166.5" width="39" height="39"/><rect class="cls-11" x="146" y="166" width="40" height="40"/><rect class="cls-7" x="146.5" y="166.5" width="39" height="39"/><rect class="cls-11" x="188" y="166" width="40" height="40"/><rect class="cls-7" x="188.5" y="166.5" width="39" height="39"/><rect class="cls-11" x="230" y="166" width="40" height="40"/><rect class="cls-7" x="230.5" y="166.5" width="39" height="39"/><rect class="cls-8" x="272" y="166" width="40" height="40"/><rect class="cls-7" x="272.5" y="166.5" width="39" height="39"/><rect class="cls-8" x="314" y="166" width="40" height="40"/><rect class="cls-7" x="314.5" y="166.5" width="39" height="39"/><rect class="cls-8" x="356" y="166" width="40" height="40"/><rect class="cls-7" x="356.5" y="166.5" width="39" height="39"/><rect class="cls-8" x="398" y="166" width="40" height="40"/><rect class="cls-7" x="398.5" y="166.5" width="39" height="39"/><rect class="cls-8" x="440" y="166" width="40" height="40"/><rect class="cls-7" x="440.5" y="166.5" width="39" height="39"/><rect class="cls-11" x="20" y="208" width="40" height="40"/><rect class="cls-7" x="20.5" y="208.5" width="39" height="39"/><rect class="cls-11" x="62" y="208" width="40" height="40"/><rect class="cls-7" x="62.5" y="208.5" width="39" height="39"/><rect class="cls-11" x="104" y="208" width="40" height="40"/><rect class="cls-7" x="104.5" y="208.5" width="39" height="39"/><rect class="cls-11" x="146" y="208" width="40" height="40"/><rect class="cls-7" x="146.5" y="208.5" width="39" height="39"/><rect class="cls-11" x="188" y="208" width="40" height="40"/><rect class="cls-7" x="188.5" y="208.5" width="39" height="39"/><rect class="cls-11" x="230" y="208" width="40" height="40"/><rect class="cls-7" x="230.5" y="208.5" width="39" height="39"/><rect class="cls-8" x="272" y="208" width="40" height="40"/><rect class="cls-7" x="272.5" y="208.5" width="39" height="39"/><rect class="cls-8" x="314" y="208" width="40" height="40"/><rect class="cls-7" x="314.5" y="208.5" width="39" height="39"/><rect class="cls-8" x="356" y="208" width="40" height="40"/><rect class="cls-7" x="356.5" y="208.5" width="39" height="39"/><rect class="cls-8" x="398" y="208" width="40" height="40"/><rect class="cls-7" x="398.5" y="208.5" width="39" height="39"/><rect class="cls-8" x="440" y="208" width="40" height="40"/><rect class="cls-7" x="440.5" y="208.5" width="39" height="39"/><rect class="cls-11" x="20" y="250" width="40" height="40"/><rect class="cls-7" x="20.5" y="250.5" width="39" height="39"/><rect class="cls-11" x="62" y="250" width="40" height="40"/><rect class="cls-7" x="62.5" y="250.5" width="39" height="39"/><rect class="cls-11" x="104" y="250" width="40" height="40"/><rect class="cls-7" x="104.5" y="250.5" width="39" height="39"/><rect class="cls-11" x="146" y="250" width="40" height="40"/><rect class="cls-7" x="146.5" y="250.5" width="39" height="39"/><rect class="cls-11" x="188" y="250" width="40" height="40"/><rect class="cls-7" x="188.5" y="250.5" width="39" height="39"/><rect class="cls-1" x="230" y="250" width="40" height="40"/><rect class="cls-5" x="230" y="250" width="40" height="40"/><rect class="cls-7" x="230.5" y="250.5" width="39" height="39"/><rect class="cls-11" x="272" y="250" width="40" height="40"/><rect class="cls-7" x="272.5" y="250.5" width="39" height="39"/><rect class="cls-11" x="314" y="250" width="40" height="40"/><rect class="cls-7" x="314.5" y="250.5" width="39" height="39"/><rect class="cls-11" x="356" y="250" width="40" height="40"/><rect class="cls-7" x="356.5" y="250.5" width="39" height="39"/><rect class="cls-11" x="398" y="250" width="40" height="40"/><rect class="cls-7" x="398.5" y="250.5" width="39" height="39"/><rect class="cls-11" x="440" y="250" width="40" height="40"/><rect class="cls-7" x="440.5" y="250.5" width="39" height="39"/><rect class="cls-9" x="20" y="292" width="40" height="40"/><rect class="cls-7" x="20.5" y="292.5" width="39" height="39"/><rect class="cls-9" x="62" y="292" width="40" height="40"/><rect class="cls-7" x="62.5" y="292.5" width="39" height="39"/><rect class="cls-9" x="104" y="292" width="40" height="40"/><rect class="cls-7" x="104.5" y="292.5" width="39" height="39"/><rect class="cls-9" x="146" y="292" width="40" height="40"/><rect class="cls-7" x="146.5" y="292.5" width="39" height="39"/><rect class="cls-9" x="188" y="292" width="40" height="40"/><rect class="cls-7" x="188.5" y="292.5" width="39" height="39"/><rect class="cls-11" x="230" y="292" width="40" height="40"/><rect class="cls-7" x="230.5" y="292.5" width="39" height="39"/><rect class="cls-11" x="272" y="292" width="40" height="40"/><rect class="cls-7" x="272.5" y="292.5" width="39" height="39"/><rect class="cls-11" x="314" y="292" width="40" height="40"/><rect class="cls-7" x="314.5" y="292.5" width="39" height="39"/><rect class="cls-11" x="356" y="292" width="40" height="40"/><rect class="cls-7" x="356.5" y="292.5" width="39" height="39"/><rect class="cls-11" x="398" y="292" width="40" height="40"/><rect class="cls-7" x="398.5" y="292.5" width="39" height="39"/><rect class="cls-11" x="440" y="292" width="40" height="40"/><rect class="cls-7" x="440.5" y="292.5" width="39" height="39"/><rect class="cls-9" x="20" y="334" width="40" height="40"/><rect class="cls-7" x="20.5" y="334.5" width="39" height="39"/><rect class="cls-9" x="62" y="334" width="40" height="40"/><rect class="cls-7" x="62.5" y="334.5" width="39" height="39"/><rect class="cls-9" x="104" y="334" width="40" height="40"/><rect class="cls-7" x="104.5" y="334.5" width="39" height="39"/><rect class="cls-9" x="146" y="334" width="40" height="40"/><rect class="cls-7" x="146.5" y="334.5" width="39" height="39"/><rect class="cls-9" x="188" y="334" width="40" height="40"/><rect class="cls-7" x="188.5" y="334.5" width="39" height="39"/><rect class="cls-11" x="230" y="334" width="40" height="40"/><rect class="cls-7" x="230.5" y="334.5" width="39" height="39"/><rect class="cls-11" x="272" y="334" width="40" height="40"/><rect class="cls-7" x="272.5" y="334.5" width="39" height="39"/><rect class="cls-11" x="314" y="334" width="40" height="40"/><rect class="cls-7" x="314.5" y="334.5" width="39" height="39"/><rect class="cls-11" x="356" y="334" width="40" height="40"/><rect class="cls-7" x="356.5" y="334.5" width="39" height="39"/><rect class="cls-11" x="398" y="334" width="40" height="40"/><rect class="cls-7" x="398.5" y="334.5" width="39" height="39"/><rect class="cls-11" x="440" y="334" width="40" height="40"/><rect class="cls-7" x="440.5" y="334.5" width="39" height="39"/><rect class="cls-9" x="20" y="376" width="40" height="40"/><rect class="cls-7" x="20.5" y="376.5" width="39" height="39"/><rect class="cls-9" x="62" y="376" width="40" height="40"/><rect class="cls-7" x="62.5" y="376.5" width="39" height="39"/><rect class="cls-9" x="104" y="376" width="40" height="40"/><rect class="cls-7" x="104.5" y="376.5" width="39" height="39"/><rect class="cls-9" x="146" y="376" width="40" height="40"/><rect class="cls-7" x="146.5" y="376.5" width="39" height="39"/><rect class="cls-9" x="188" y="376" width="40" height="40"/><rect class="cls-7" x="188.5" y="376.5" width="39" height="39"/><rect class="cls-9" x="230" y="376" width="40" height="40"/><rect class="cls-7" x="230.5" y="376.5" width="39" height="39"/><rect class="cls-9" x="272" y="376" width="40" height="40"/><rect class="cls-7" x="272.5" y="376.5" width="39" height="39"/><rect class="cls-11" x="314" y="376" width="40" height="40"/><rect class="cls-7" x="314.5" y="376.5" width="39" height="39"/><rect class="cls-11" x="356" y="376" width="40" height="40"/><rect class="cls-7" x="356.5" y="376.5" width="39" height="39"/><rect class="cls-11" x="398" y="376" width="40" height="40"/><rect class="cls-7" x="398.5" y="376.5" width="39" height="39"/><rect class="cls-11" x="440" y="376" width="40" height="40"/><rect class="cls-7" x="440.5" y="376.5" width="39" height="39"/><rect class="cls-9" x="20" y="418" width="40" height="40"/><rect class="cls-7" x="20.5" y="418.5" width="39" height="39"/><rect class="cls-9" x="62" y="418" width="40" height="40"/><rect class="cls-7" x="62.5" y="418.5" width="39" height="39"/><text class="cls-4" transform="translate(73.57 435.24)"><tspan x="0" y="0">♔</tspan></text><rect class="cls-9" x="104" y="418" width="40" height="40"/><rect class="cls-7" x="104.5" y="418.5" width="39" height="39"/><rect class="cls-9" x="146" y="418" width="40" height="40"/><rect class="cls-7" x="146.5" y="418.5" width="39" height="39"/><text class="cls-4" transform="translate(157.57 434.92)"><tspan x="0" y="0">♙</tspan></text><rect class="cls-9" x="188" y="418" width="40" height="40"/><rect class="cls-7" x="188.5" y="418.5" width="39" height="39"/><rect class="cls-9" x="230" y="418" width="40" height="40"/><rect class="cls-7" x="230.5" y="418.5" width="39" height="39"/><rect class="cls-6" x="232" y="420" width="36" height="36"/><text class="cls-4" transform="translate(241.57 434.92)"><tspan x="0" y="0">♙</tspan></text><rect class="cls-9" x="272" y="418" width="40" height="40"/><rect class="cls-7" x="272.5" y="418.5" width="39" height="39"/><rect class="cls-11" x="314" y="418" width="40" height="40"/><rect class="cls-7" x="314.5" y="418.5" width="39" height="39"/><rect class="cls-11" x="356" y="418" width="40" height="40"/><rect class="cls-7" x="356.5" y="418.5" width="39" height="39"/><rect class="cls-6" x="358" y="420" width="36" height="36"/><text class="cls-4" transform="translate(367.57 434.92)"><tspan x="0" y="0">♙</tspan></text><rect class="cls-11" x="398" y="418" width="40" height="40"/><rect class="cls-7" x="398.5" y="418.5" width="39" height="39"/><rect class="cls-11" x="440" y="418" width="40" height="40"/><rect class="cls-7" x="440.5" y="418.5" width="39" height="39"/><rect class="cls-9" x="20" y="460" width="40" height="40"/><rect class="cls-7" x="20.5" y="460.5" width="39" height="39"/><rect class="cls-9" x="62" y="460" width="40" height="40"/><rect class="cls-7" x="62.5" y="460.5" width="39" height="39"/><rect class="cls-9" x="104" y="460" width="40" height="40"/><rect class="cls-7" x="104.5" y="460.5" width="39" height="39"/><rect class="cls-9" x="146" y="460" width="40" height="40"/><rect class="cls-7" x="146.5" y="460.5" width="39" height="39"/><rect class="cls-9" x="188" y="460" width="40" height="40"/><rect class="cls-7" x="188.5" y="460.5" width="39" height="39"/><rect class="cls-9" x="230" y="460" width="40" height="40"/><rect class="cls-7" x="230.5" y="460.5" width="39" height="39"/><rect class="cls-9" x="272" y="460" width="40" height="40"/><rect class="cls-7" x="272.5" y="460.5" width="39" height="39"/><rect class="cls-11" x="314" y="460" width="40" height="40"/><rect class="cls-7" x="314.5" y="460.5" width="39" height="39"/><rect class="cls-11" x="356" y="460" width="40" height="40"/><rect class="cls-7" x="356.5" y="460.5" width="39" height="39"/><rect class="cls-11" x="398" y="460" width="40" height="40"/><rect class="cls-7" x="398.5" y="460.5" width="39" height="39"/><rect class="cls-11" x="440" y="460" width="40" height="40"/><rect class="cls-7" x="440.5" y="460.5" width="39" height="39"/></svg>