<?xml version="1.0" encoding="UTF-8"?>
<svg xmlns="http://www.w3.org/2000/svg" xmlns:xlink="http://www.w3.org/1999/xlink" width="500" height="540" viewBox="0 0 500 540"><defs><radialGradient id="rg-86pihqrr" gradientUnits="objectBoundingBox" cx="0.5" cy="0.5" r="0.5"><stop offset="10%" stop-color="rgb(85, 0, 0)"/><stop offset="60%" stop-color="rgba(0, 0, 0, 0)"/></radialGradient></defs><rect x="0" y="0" width="500" height="540" fill="rgb(10, 16, 24)"/><rect x="16" y="36" width="468" height="468" rx="4" ry="4" fill="rgb(51, 51, 51)"/><rect x="20" y="40" width="40" height="40" fill="rgb(34, 34, 34)"/><rect x="20.5" y="40.5" width="39" height="39" fill="none" stroke="rgb(68, 68, 68)" stroke-width="1"/><rect x="62" y="40" width="40" height="40" fill="rgb(34, 34, 34)"/><rect x="62.5" y="40.5" width="39" height="39" fill="none" stroke="rgb(68, 68, 68)" stroke-width="1"/><rect x="104" y="40" width="40" height="40" fill="rgb(42, 26, 26)"/><rect x="104.5" y="40.5" width="39" height="39" fill="none" stroke="rgb(68, 68, 68)" stroke-width="1"/><rect x="146" y="40" width="40" height="40" fill="rgb(42, 26, 26)"/><rect x="146.5" y="40.5" width="39" height="39" fill="none" stroke="rgb(68, 68, 68)" stroke-width="1"/><rect x="188" y="40" width="40" height="40" fill="rgb(42, 26, 26)"/><rect x="188.5" y="40.5" width="39" height="39" fill="none" stroke="rgb(68, 68, 68)" stroke-width="1"/><rect x="230" y="40" width="40" height="40" fill="rgb(42, 26, 26)"/><rect x="230.5" y="40.5" width="39" height="39" fill="none" stroke="rgb(68, 68, 68)" stroke-width="1"/><rect x="232" y="42" width="36" height="36" fill="none" stroke="rgb(168, 85, 247)" stroke-width="2"/><text x="241.57" y="55.99" fill="rgb(11, 14, 19)" font-size="28" font-family="'IBM Plex Sans'" font-weight="400" font-style="normal" xml:space="preserve">♚</text><rect x="272" y="40" width="40" height="40" fill="rgb(42, 26, 26)"/><rect x="272.5" y="40.5" width="39" height="39" fill="none" stroke="rgb(68, 68, 68)" stroke-width="1"/><rect x="314" y="40" width="40" height="40" fill="rgb(42, 26, 26)"/><rect x="314.5" y="40.5" width="39" height="39" fill="none" stroke="rgb(68, 68, 68)" stroke-width="1"/><rect x="356" y="40" width="40" height="40" fill="rgb(42, 26, 26)"/><rect x="356.5" y="40.5" width="39" height="39" fill="none" stroke="rgb(68, 68, 68)" stroke-width="1"/><rect x="398" y="40" width="40" height="40" fill="rgb(34, 34, 34)"/><rect x="398.5" y="40.5" width="39" height="39" fill="none" stroke="rgb(68, 68, 68)" stroke-width="1"/><rect x="440" y="40" width="40" height="40" fill="rgb(34, 34, 34)"/><rect x="440.5" y="40.5" width="39" height="39" fill="none" stroke="rgb(68, 68, 68)" stroke-width="1"/><rect x="20" y="82" width="40" height="40" fill="rgb(34, 34, 34)"/><rect x="20.5" y="82.5" width="39" height="39" fill="none" stroke="rgb(68, 68, 68)" stroke-width="1"/><rect x="62" y="82" width="40" height="40" fill="rgb(34, 34, 34)"/><rect x="62.5" y="82.5" width="39" height="39" fill="none" stroke="rgb(68, 68, 68)" stroke-width="1"/><rect x="104" y="82" width="40" height="40" fill="rgb(42, 26, 26)"/><rect x="104.5" y="82.5" width="39" height="39" fill="none" stroke="rgb(68, 68, 68)" stroke-width="1"/><rect x="146" y="82" width="40" height="40" fill="rgb(42, 26, 26)"/><rect x="146.5" y="82.5" width="39" height="39" fill="none" stroke="rgb(68, 68, 68)" stroke-width="1"/><rect x="188" y="82" width="40" height="40" fill="rgb(42, 26, 26)"/><rect x="188.5" y="82.5" width="39" height="39" fill="none" stroke="rgb(68, 68, 68)" stroke-width="1"/><rect x="230" y="82" width="40" height="40" fill="rgb(42, 26, 26)"/><rect x="230.5" y="82.5" width="39" height="39" fill="none" stroke="rgb(68, 68, 68)" stroke-width="1"/><rect x="232" y="84" width="36" height="36" fill="none" stroke="rgb(168, 85, 247)" stroke-width="2"/><rect x="241.0703125" y="83" width="17.859375" height="38" rx="2" ry="2" fill="none" stroke="rgb(245, 158, 11)" stroke-width="1"/><text x="241.57" y="98.92" fill="rgb(255, 255, 255)" font-size="28" font-family="'IBM Plex Sans'" font-weight="400" font-style="normal" xml:space="preserve">♙</text><rect x="272" y="82" width="40" height="40" fill="rgb(42, 26, 26)"/><rect x="272.5" y="82.5" width="39" height="39" fill="none" stroke="rgb(68, 68, 68)" stroke-width="1"/><rect x="314" y="82" width="40" height="40" fill="rgb(42, 26, 26)"/><rect x="314.5" y="82.5" width="39" height="39" fill="none" stroke="rgb(68, 68, 68)" stroke-width="1"/><rect x="356" y="82" width="40" height="40" fill="rgb(42, 26, 26)"/><rect x="356.5" y="82.5" width="39" height="39" fill="none" stroke="rgb(68, 68, 68)" stroke-width="1"/><rect x="398" y="82" width="40" height="40" fill="rgb(34, 34, 34)"/><rect x="398.5" y="82.5" width="39" height="39" fill="none" stroke="rgb(68, 68, 68)" stroke-width="1"/><rect x="440" y="82" width="40" height="40" fill="rgb(34, 34, 34)"/><rect x="440.5" y="82.5" width="39" height="39" fill="none" stroke="rgb(68, 68, 68)" stroke-width="1"/><rect x="20" y="124" width="40" height="40" fill="rgb(34, 34, 34)"/><rect x="20.5" y="124.5" width="39" height="39" fill="none" stroke="rgb(68, 68, 68)" stroke-width="1"/><rect x="62" y="124" width="40" height="40" fill="rgb(34, 34, 34)"/><rect x="62.5" y="124.5" width="39" height="39" fill="none" stroke="rgb(68, 68, 68)" stroke-width="1"/><rect x="104" y="124" width="40" height="40" fill="rgb(42, 26, 26)"/><rect x="104.5" y="124.5" width="39" height="39" fill="none" stroke="rgb(68, 68, 68)" stroke-width="1"/><rect x="146" y="124" width="40" height="40" fill="rgb(42, 26, 26)"/><rect x="146.5" y="124.5" width="39" height="39" fill="none" stroke="rgb(68, 68, 68)" stroke-width="1"/><rect x="188" y="124" width="40" height="40" fill="rgb(42, 26, 26)"/><rect x="188.5" y="124.5" width="39" height="39" fill="none" stroke="rgb(68, 68, 68)" stroke-width="1"/><rect x="230" y="124" width="40" height="40" fill="rgb(42, 26, 26)"/><rect x="230.5" y="124.5" width="39" height="39" fill="none" stroke="rgb(68, 68, 68)" stroke-width="1"/><rect x="272" y="124" width="40" height="40" fill="rgb(42, 26, 26)"/><rect x="272.5" y="124.5" width="39" height="39" fill="none" stroke="rgb(68, 68, 68)" stroke-width="1"/><rect x="314" y="124" width="40" height="40" fill="rgb(42, 26, 26)"/><rect x="314.5" y="124.5" width="39" height="39" fill="none" stroke="rgb(68, 68, 68)" stroke-width="1"/><rect x="356" y="124" width="40" height="40" fill="rgb(42, 26, 26)"/><rect x="356.5" y="124.5" width="39" height="39" fill="none" stroke="rgb(68, 68, 68)" stroke-width="1"/><rect x="398" y="124" width="40" height="40" fill="rgb(34, 34, 34)"/><rect x="398.5" y="124.5" width="39" height="39" fill="none" stroke="rgb(68, 68, 68)" stroke-width="1"/><rect x="440" y="124" width="40" height="40" fill="rgb(34, 34, 34)"/><rect x="440.5" y="124.5" width="39" height="39" fill="none" stroke="rgb(68, 68, 68)" stroke-width="1"/><rect x="20" y="166" width="40" height="40" fill="rgb(34, 34, 34)"/><rect x="20.5" y="166.5" width="39" height="39" fill="none" stroke="rgb(68, 68, 68)" stroke-width="1"/><rect x="62" y="166" width="40" height="40" fill="rgb(34, 34, 34)"/><rect x="62.5" y="166.5" width="39" height="39" fill="none" stroke="rgb(68, 68, 68)" stroke-width="1"/><rect x="104" y="166" width="40" height="40" fill="rgb(42, 26, 26)"/><rect x="104.5" y="166.5" width="39" height="39" fill="none" stroke="rgb(68, 68, 68)" stroke-width="1"/><rect x="146" y="166" width="40" height="40" fill="rgb(42, 26, 26)"/><rect x="146.5" y="166.5" width="39" height="39" fill="none" stroke="rgb(68, 68, 68)" stroke-width="1"/><rect x="188" y="166" width="40" height="40" fill="rgb(42, 26, 26)"/><rect x="188.5" y="166.5" width="39" height="39" fill="none" stroke="rgb(68, 68, 68)" stroke-width="1"/><rect x="230" y="166" width="40" height="40" fill="rgb(42, 26, 26)"/><rect x="230.5" y="166.5" width="39" height="39" fill="none" stroke="rgb(68, 68, 68)" stroke-width="1"/><rect x="272" y="166" width="40" height="40" fill="rgb(42, 26, 26)"/><rect x="272.5" y="166.5" width="39" height="39" fill="none" stroke="rgb(68, 68, 68)" stroke-width="1"/><rect x="314" y="166" width="40" height="40" fill="rgb(42, 26, 26)"/><rect x="314.5" y="166.5" width="39" height="39" fill="none" stroke="rgb(68, 68, 68)" stroke-width="1"/><rect x="356" y="166" width="40" height="40" fill="rgb(42, 26, 26)"/><rect x="356.5" y="166.5" width="39" height="39" fill="none" stroke="rgb(68, 68, 68)" stroke-width="1"/><rect x="398" y="166" width="40" height="40" fill="rgb(34, 34, 34)"/><rect x="398.5" y="166.5" width="39" height="39" fill="none" stroke="rgb(68, 68, 68)" stroke-width="1"/><rect x="440" y="166" width="40" height="40" fill="rgb(34, 34, 34)"/><rect x="440.5" y="166.5" width="39" height="39" fill="none" stroke="rgb(68, 68, 68)" stroke-width="1"/><rect x="20" y="208" width="40" height="40" fill="rgb(34, 34, 34)"/><rect x="20.5" y="208.5" width="39" height="39" fill="none" stroke="rgb(68, 68, 68)" stroke-width="1"/><rect x="62" y="208" width="40" height="40" fill="rgb(34, 34, 34)"/><rect x="62.5" y="208.5" width="39" height="39" fill="none" stroke="rgb(68, 68, 68)" stroke-width="1"/><rect x="104" y="208" width="40" height="40" fill="rgb(34, 34, 34)"/><rect x="104.5" y="208.5" width="39" height="39" fill="none" stroke="rgb(68, 68, 68)" stroke-width="1"/><rect x="146" y="208" width="40" height="40" fill="rgb(34, 34, 34)"/><rect x="146.5" y="208.5" width="39" height="39" fill="none" stroke="rgb(68, 68, 68)" stroke-width="1"/><rect x="188" y="208" width="40" height="40" fill="rgb(34, 34, 34)"/><rect x="188.5" y="208.5" width="39" height="39" fill="none" stroke="rgb(68, 68, 68)" stroke-width="1"/><rect x="230" y="208" width="40" height="40" fill="rgb(34, 34, 34)"/><rect x="230.5" y="208.5" width="39" height="39" fill="none" stroke="rgb(68, 68, 68)" stroke-width="1"/><rect x="272" y="208" width="40" height="40" fill="rgb(34, 34, 34)"/><rect x="272.5" y="208.5" width="39" height="39" fill="none" stroke="rgb(68, 68, 68)" stroke-width="1"/><rect x="314" y="208" width="40" height="40" fill="rgb(34, 34, 34)"/><rect x="314.5" y="208.5" width="39" height="39" fill="none" stroke="rgb(68, 68, 68)" stroke-width="1"/><rect x="356" y="208" width="40" height="40" fill="rgb(34, 34, 34)"/><rect x="356.5" y="208.5" width="39" height="39" fill="none" stroke="rgb(68, 68, 68)" stroke-width="1"/><rect x="398" y="208" width="40" height="40" fill="rgb(34, 34, 34)"/><rect x="398.5" y="208.5" width="39" height="39" fill="none" stroke="rgb(68, 68, 68)" stroke-width="1"/><rect x="440" y="208" width="40" height="40" fill="rgb(34, 34, 34)"/><rect x="440.5" y="208.5" width="39" height="39" fill="none" stroke="rgb(68, 68, 68)" stroke-width="1"/><rect x="20" y="250" width="40" height="40" fill="rgb(34, 34, 34)"/><rect x="20.5" y="250.5" width="39" height="39" fill="none" stroke="rgb(68, 68, 68)" stroke-width="1"/><rect x="62" y="250" width="40" height="40" fill="rgb(34, 34, 34)"/><rect x="62.5" y="250.5" width="39" height="39" fill="none" stroke="rgb(68, 68, 68)" stroke-width="1"/><rect x="104" y="250" width="40" height="40" fill="rgb(34, 34, 34)"/><rect x="104.5" y="250.5" width="39" height="39" fill="none" stroke="rgb(68, 68, 68)" stroke-width="1"/><rect x="146" y="250" width="40" height="40" fill="rgb(34, 34, 34)"/><rect x="146.5" y="250.5" width="39" height="39" fill="none" stroke="rgb(68, 68, 68)" stroke-width="1"/><rect x="188" y="250" width="40" height="40" fill="rgb(34, 34, 34)"/><rect x="188.5" y="250.5" width="39" height="39" fill="none" stroke="rgb(68, 68, 68)" stroke-width="1"/><rect x="230" y="250" width="40" height="40" fill="rgb(17, 17, 17)"/><rect x="230" y="250" width="40" height="40" fill="url(#rg-86pihqrr)"/><rect x="230.5" y="250.5" width="39" height="39" fill="none" stroke="rgb(68, 68, 68)" stroke-width="1"/><rect x="272" y="250" width="40" height="40" fill="rgb(34, 34, 34)"/><rect x="272.5" y="250.5" width="39" height="39" fill="none" stroke="rgb(68, 68, 68)" stroke-width="1"/><rect x="314" y="250" width="40" height="40" fill="rgb(34, 34, 34)"/><rect x="314.5" y="250.5" width="39" height="39" fill="none" stroke="rgb(68, 68, 68)" stroke-width="1"/><rect x="356" y="250" width="40" height="40" fill="rgb(34, 34, 34)"/><rect x="356.5" y="250.5" width="39" height="39" fill="none" stroke="rgb(68, 68, 68)" stroke-width="1"/><rect x="398" y="250" width="40" height="40" fill="rgb(34, 34, 34)"/><rect x="398.5" y="250.5" width="39" height="39" fill="none" stroke="rgb(68, 68, 68)" stroke-width="1"/><rect x="440" y="250" width="40" height="40" fill="rgb(34, 34, 34)"/><rect x="440.5" y="250.5" width="39" height="39" fill="none" stroke="rgb(68, 68, 68)" stroke-width="1"/><rect x="20" y="292" width="40" height="40" fill="rgb(34, 34, 34)"/><rect x="20.5" y="292.5" width="39" height="39" fill="none" stroke="rgb(68, 68, 68)" stroke-width="1"/><rect x="62" y="292" width="40" height="40" fill="rgb(34, 34, 34)"/><rect x="62.5" y="292.5" width="39" height="39" fill="none" stroke="rgb(68, 68, 68)" stroke-width="1"/><rect x="104" y="292" width="40" height="40" fill="rgb(34, 34, 34)"/><rect x="104.5" y="292.5" width="39" height="39" fill="none" stroke="rgb(68, 68, 68)" stroke-width="1"/><rect x="146" y="292" width="40" height="40" fill="rgb(34, 34, 34)"/><rect x="146.5" y="292.5" width="39" height="39" fill="none" stroke="rgb(68, 68, 68)" stroke-width="1"/><rect x="188" y="292" width="40" height="40" fill="rgb(34, 34, 34)"/><rect x="188.5" y="292.5" width="39" height="39" fill="none" stroke="rgb(68, 68, 68)" stroke-width="1"/><rect x="230" y="292" width="40" height="40" fill="rgb(34, 34, 34)"/><rect x="230.5" y="292.5" width="39" height="39" fill="none" stroke="rgb(68, 68, 68)" stroke-width="1"/><rect x="272" y="292" width="40" height="40" fill="rgb(34, 34, 34)"/><rect x="272.5" y="292.5" width="39" height="39" fill="none" stroke="rgb(68, 68, 68)" stroke-width="1"/><rect x="314" y="292" width="40" height="40" fill="rgb(34, 34, 34)"/><rect x="314.5" y="292.5" width="39" height="39" fill="none" stroke="rgb(68, 68, 68)" stroke-width="1"/><rect x="356" y="292" width="40" height="40" fill="rgb(34, 34, 34)"/><rect x="356.5" y="292.5" width="39" height="39" fill="none" stroke="rgb(68, 68, 68)" stroke-width="1"/><rect x="398" y="292" width="40" height="40" fill="rgb(34, 34, 34)"/><rect x="398.5" y="292.5" width="39" height="39" fill="none" stroke="rgb(68, 68, 68)" stroke-width="1"/><rect x="440" y="292" width="40" height="40" fill="rgb(34, 34, 34)"/><rect x="440.5" y="292.5" width="39" height="39" fill="none" stroke="rgb(68, 68, 68)" stroke-width="1"/><rect x="20" y="334" width="40" height="40" fill="rgb(26, 42, 58)"/><rect x="20.5" y="334.5" width="39" height="39" fill="none" stroke="rgb(68, 68, 68)" stroke-width="1"/><rect x="62" y="334" width="40" height="40" fill="rgb(26, 42, 58)"/><rect x="62.5" y="334.5" width="39" height="39" fill="none" stroke="rgb(68, 68, 68)" stroke-width="1"/><rect x="104" y="334" width="40" height="40" fill="rgb(26, 42, 58)"/><rect x="104.5" y="334.5" width="39" height="39" fill="none" stroke="rgb(68, 68, 68)" stroke-width="1"/><rect x="146" y="334" width="40" height="40" fill="rgb(26, 42, 58)"/><rect x="146.5" y="334.5" width="39" height="39" fill="none" stroke="rgb(68, 68, 68)" stroke-width="1"/><rect x="188" y="334" width="40" height="40" fill="rgb(34, 34, 34)"/><rect x="188.5" y="334.5" width="39" height="39" fill="none" stroke="rgb(68, 68, 68)" stroke-width="1"/><rect x="230" y="334" width="40" height="40" fill="rgb(34, 34, 34)"/><rect x="230.5" y="334.5" width="39" height="39" fill="none" stroke="rgb(68, 68, 68)" stroke-width="1"/><rect x="272" y="334" width="40" height="40" fill="rgb(34, 34, 34)"/><rect x="272.5" y="334.5" width="39" height="39" fill="none" stroke="rgb(68, 68, 68)" stroke-width="1"/><rect x="314" y="334" width="40" height="40" fill="rgb(34, 34, 34)"/><rect x="314.5" y="334.5" width="39" height="39" fill="none" stroke="rgb(68, 68, 68)" stroke-width="1"/><rect x="356" y="334" width="40" height="40" fill="rgb(34, 34, 34)"/><rect x="356.5" y="334.5" width="39" height="39" fill="none" stroke="rgb(68, 68, 68)" stroke-width="1"/><rect x="398" y="334" width="40" height="40" fill="rgb(34, 34, 34)"/><rect x="398.5" y="334.5" width="39" height="39" fill="none" stroke="rgb(68, 68, 68)" stroke-width="1"/><rect x="440" y="334" width="40" height="40" fill="rgb(34, 34, 34)"/><rect x="440.5" y="334.5" width="39" height="39" fill="none" stroke="rgb(68, 68, 68)" stroke-width="1"/><rect x="20" y="376" width="40" height="40" fill="rgb(26, 42, 58)"/><rect x="20.5" y="376.5" width="39" height="39" fill="none" stroke="rgb(68, 68, 68)" stroke-width="1"/><rect x="62" y="376" width="40" height="40" fill="rgb(26, 42, 58)"/><rect x="62.5" y="376.5" width="39" height="39" fill="none" stroke="rgb(68, 68, 68)" stroke-width="1"/><rect x="104" y="376" width="40" height="40" fill="rgb(26, 42, 58)"/><rect x="104.5" y="376.5" width="39" height="39" fill="none" stroke="rgb(68, 68, 68)" stroke-width="1"/><rect x="146" y="376" width="40" height="40" fill="rgb(26, 42, 58)"/><rect x="146.5" y="376.5" width="39" height="39" fill="none" stroke="rgb(68, 68, 68)" stroke-width="1"/><rect x="188" y="376" width="40" height="40" fill="rgb(34, 34, 34)"/><rect x="188.5" y="376.5" width="39" height="39" fill="none" stroke="rgb(68, 68, 68)" stroke-width="1"/><rect x="230" y="376" width="40" height="40" fill="rgb(34, 34, 34)"/><rect x="230.5" y="376.5" width="39" height="39" fill="none" stroke="rgb(68, 68, 68)" stroke-width="1"/><rect x="272" y="376" width="40" height="40" fill="rgb(34, 34, 34)"/><rect x="272.5" y="376.5" width="39" height="39" fill="none" stroke="rgb(68, 68, 68)" stroke-width="1"/><rect x="314" y="376" width="40" height="40" fill="rgb(34, 34, 34)"/><rect x="314.5" y="376.5" width="39" height="39" fill="none" stroke="rgb(68, 68, 68)" stroke-width="1"/><rect x="356" y="376" width="40" height="40" fill="rgb(34, 34, 34)"/><rect x="356.5" y="376.5" width="39" height="39" fill="none" stroke="rgb(68, 68, 68)" stroke-width="1"/><rect x="398" y="376" width="40" height="40" fill="rgb(34, 34, 34)"/><rect x="398.5" y="376.5" width="39" height="39" fill="none" stroke="rgb(68, 68, 68)" stroke-width="1"/><rect x="440" y="376" width="40" height="40" fill="rgb(34, 34, 34)"/><rect x="440.5" y="376.5" width="39" height="39" fill="none" stroke="rgb(68, 68, 68)" stroke-width="1"/><rect x="20" y="418" width="40" height="40" fill="rgb(26, 42, 58)"/><rect x="20.5" y="418.5" width="39" height="39" fill="none" stroke="rgb(68, 68, 68)" stroke-width="1"/><rect x="62" y="418" width="40" height="40" fill="rgb(26, 42, 58)"/><rect x="62.5" y="418.5" width="39" height="39" fill="none" stroke="rgb(68, 68, 68)" stroke-width="1"/><rect x="104" y="418" width="40" height="40" fill="rgb(26, 42, 58)"/><rect x="104.5" y="418.5" width="39" height="39" fill="none" stroke="rgb(68, 68, 68)" stroke-width="1"/><rect x="146" y="418" width="40" height="40" fill="rgb(26, 42, 58)"/><rect x="146.5" y="418.5" width="39" height="39" fill="none" stroke="rgb(68, 68, 68)" stroke-width="1"/><rect x="188" y="418" width="40" height="40" fill="rgb(34, 34, 34)"/><rect x="188.5" y="418.5" width="39" height="39" fill="none" stroke="rgb(68, 68, 68)" stroke-width="1"/><rect x="230" y="418" width="40" height="40" fill="rgb(34, 34, 34)"/><rect x="230.5" y="418.5" width="39" height="39" fill="none" stroke="rgb(68, 68, 68)" stroke-width="1"/><rect x="272" y="418" width="40" height="40" fill="rgb(34, 34, 34)"/><rect x="272.5" y="418.5" width="39" height="39" fill="none" stroke="rgb(68, 68, 68)" stroke-width="1"/><rect x="314" y="418" width="40" height="40" fill="rgb(34, 34, 34)"/><rect x="314.5" y="418.5" width="39" height="39" fill="none" stroke="rgb(68, 68, 68)" stroke-width="1"/><rect x="356" y="418" width="40" height="40" fill="rgb(34, 34, 34)"/><rect x="356.5" y="418.5" width="39" height="39" fill="none" stroke="rgb(68, 68, 68)" stroke-width="1"/><rect x="398" y="418" width="40" height="40" fill="rgb(34, 34, 34)"/><rect x="398.5" y="418.5" width="39" height="39" fill="none" stroke="rgb(68, 68, 68)" stroke-width="1"/><rect x="440" y="418" width="40" height="40" fill="rgb(34, 34, 34)"/><rect x="440.5" y="418.5" width="39" height="39" fill="none" stroke="rgb(68, 68, 68)" stroke-width="1"/><rect x="20" y="460" width="40" height="40" fill="rgb(26, 42, 58)"/><rect x="20.5" y="460.5" width="39" height="39" fill="none" stroke="rgb(68, 68, 68)" stroke-width="1"/><text x="31.57" y="477.24" fill="rgb(255, 255, 255)" font-size="28" font-family="'IBM Plex Sans'" font-weight="400" font-style="normal" xml:space="preserve">♔</text><rect x="62" y="460" width="40" height="40" fill="rgb(26, 42, 58)"/><rect x="62.5" y="460.5" width="39" height="39" fill="none" stroke="rgb(68, 68, 68)" stroke-width="1"/><rect x="104" y="460" width="40" height="40" fill="rgb(26, 42, 58)"/><rect x="104.5" y="460.5" width="39" height="39" fill="none" stroke="rgb(68, 68, 68)" stroke-width="1"/><rect x="146" y="460" width="40" height="40" fill="rgb(26, 42, 58)"/><rect x="146.5" y="460.5" width="39" height="39" fill="none" stroke="rgb(68, 68, 68)" stroke-width="1"/><rect x="188" y="460" width="40" height="40" fill="rgb(34, 34, 34)"/><rect x="188.5" y="460.5" width="39" height="39" fill="none" stroke="rgb(68, 68, 68)" stroke-width="1"/><rect x="230" y="460" width="40" height="40" fill="rgb(34, 34, 34)"/><rect x="230.5" y="460.5" width="39" height="39" fill="none" stroke="rgb(68, 68, 68)" stroke-width="1"/><rect x="272" y="460" width="40" height="40" fill="rgb(34, 34, 34)"/><rect x="272.5" y="460.5" width="39" height="39" fill="none" stroke="rgb(68, 68, 68)" stroke-width="1"/><rect x="314" y="460" width="40" height="40" fill="rgb(34, 34, 34)"/><rect x="314.5" y="460.5" width="39" height="39" fill="none" stroke="rgb(68, 68, 68)" stroke-width="1"/><rect x="356" y="460" width="40" height="40" fill="rgb(34, 34, 34)"/><rect x="356.5" y="460.5" width="39" height="39" fill="none" stroke="rgb(68, 68, 68)" stroke-width="1"/><rect x="398" y="460" width="40" height="40" fill="rgb(34, 34, 34)"/><rect x="398.5" y="460.5" width="39" height="39" fill="none" stroke="rgb(68, 68, 68)" stroke-width="1"/><rect x="440" y="460" width="40" height="40" fill="rgb(34, 34, 34)"/><rect x="440.5" y="460.5" width="39" height="39" fill="none" stroke="rgb(68, 68, 68)" stroke-width="1"/></svg>