<?xml version="1.0" encoding="UTF-8"?>
<svg id="Layer_1" data-name="Layer 1" xmlns="http://www.w3.org/2000/svg" xmlns:xlink="http://www.w3.org/1999/xlink" viewBox="0 0 1024 512">
  <defs>
    <style>
      .cls-1 {
        fill: none;
      }

      .cls-2 {
        fill: #00899c;
      }

      .cls-2, .cls-3, .cls-4, .cls-5, .cls-6, .cls-7, .cls-8 {
        fill-rule: evenodd;
      }

      .cls-3 {
        fill: #09e8ca;
      }

      .cls-9 {
        font-family: AllRoundGothic-XLig, 'All Round Gothic';
        font-size: 33px;
      }

      .cls-4 {
        fill: #1ef7da;
      }

      .cls-10 {
        letter-spacing: -.1em;
      }

      .cls-11 {
        letter-spacing: -.08em;
      }

      .cls-5 {
        fill: #8efaec;
      }

      .cls-12 {
        letter-spacing: -.03em;
      }

      .cls-13 {
        letter-spacing: 0em;
      }

      .cls-14 {
        letter-spacing: 0em;
      }

      .cls-15 {
        font-family: SolPro-Regular, 'Sol Pro';
        font-size: 72px;
      }

      .cls-6 {
        fill: #295c8c;
      }

      .cls-7 {
        fill: #00c2bb;
      }

      .cls-16 {
        letter-spacing: .02em;
      }

      .cls-17 {
        clip-path: url(#clippath);
      }

      .cls-8 {
        fill: #0f637a;
      }
    </style>
    <clipPath id="clippath">
      <rect class="cls-1" x="89.81" y="141" width="181.81" height="229.99"/>
    </clipPath>
  </defs>
  <g class="cls-17">
    <g>
      <path class="cls-4" d="M125.74,164.51c-1.01-1.01-2.52-2.35-4.36-3.86-6.88-5.37-8.06-7.55-8.06-7.55,0,0,7.05-2.18,17.96-3.69v15.11h-5.54Z" data-layer-id="9915755503533"/>
      <path class="cls-3" d="M131.28,149.4c5.37-.67,11.92-1.34,18.8-1.18v16.45h-18.8v-15.28h0Z" data-layer-id="0700950203576"/>
      <path class="cls-4" d="M150.08,148.05c5.2,0,10.74.34,16.45,1.18.84.17,1.68.34,2.52.34v14.94h-18.8v-16.45h-.17Z" data-layer-id="2616000103616"/>
      <path class="cls-4" d="M187.85,157.12c3.36,2.01,6.72,4.53,9.74,7.39h-9.74v-7.39h0Z" data-layer-id="2825296703655"/>
      <path class="cls-3" d="M117.51,183.31c7.72-9.9,10.91-15.11,10.91-15.11,0,0-.17-1.18-2.69-3.69h5.54v18.8h-13.77Z" data-layer-id="0747723703696"/>
      <polygon class="cls-4" data-layer-id="9365092903735" points="131.28 164.51 150.08 164.51 150.08 183.31 131.28 183.31 131.28 164.51"/>
      <polygon class="cls-4" data-layer-id="0301444203775" points="168.88 164.51 187.85 164.51 187.85 183.31 168.88 183.31 168.88 164.51"/>
      <path class="cls-4" d="M206.66,174.58c2.01,2.69,4.03,5.71,5.71,8.9h-5.71v-8.9h0Z" data-layer-id="6788908803818"/>
      <path class="cls-4" d="M102.91,202.11c3.19-4.2,6.55-8.56,9.57-12.42v12.42h-9.57Z" data-layer-id="9356603803857"/>
      <path class="cls-3" d="M112.48,189.69c.67-.84,1.34-1.68,1.85-2.35,1.18-1.34,2.18-2.69,3.19-4.03h13.77v18.8h-18.8v-12.42h0Z" data-layer-id="8049009503897"/>
      <polygon class="cls-5" data-layer-id="5951832403937" points="131.28 183.31 150.08 183.31 150.08 202.11 131.28 202.11 131.28 183.31"/>
      <polygon class="cls-4" data-layer-id="2939796203977" points="150.08 183.31 168.88 183.31 168.88 202.11 150.08 202.11 150.08 183.31"/>
      <polygon class="cls-5" data-layer-id="2861115604018" points="168.88 183.31 187.85 183.31 187.85 202.11 168.88 202.11 168.88 183.31"/>
      <polygon class="cls-4" data-layer-id="9030662404058" points="187.85 183.31 206.66 183.31 206.66 202.11 187.85 202.11 187.85 183.31"/>
      <path class="cls-5" d="M212.36,183.31c3.19,5.71,5.71,11.92,7.55,18.8h-13.26v-18.8h5.71Z" data-layer-id="4301391404098"/>
      <path class="cls-4" d="M89.81,221.08v-.17c0-.34,1.51-2.52,3.86-5.88v6.04h-3.86Z" data-layer-id="4595644504139"/>
      <path class="cls-3" d="M93.67,214.87c2.35-3.36,5.71-8.06,9.23-12.76h9.57v18.8h-18.8v-6.04h0Z" data-layer-id="7289835104179"/>
      <polygon class="cls-4" data-layer-id="1485256804218" points="112.48 202.11 131.28 202.11 131.28 221.08 112.48 221.08 112.48 202.11"/>
      <path class="cls-3" d="M150.08,216.55c-1.51,1.51-3.53,3.19-5.71,4.36h-13.09v-18.8h18.8v14.44h0Z" data-layer-id="4447343204255"/>
      <path class="cls-4" d="M153.61,212.35s-.17.17-.17.34c-.5.67-1.68,2.18-3.19,3.86v-14.44h18.8v18.8h-14.94c.17-6.38-.5-8.56-.5-8.56h0Z" data-layer-id="8661811904295"/>
      <polygon class="cls-5" data-layer-id="1748743904335" points="187.85 202.11 206.66 202.11 206.66 221.08 187.85 221.08 187.85 202.11"/>
      <path class="cls-4" d="M93.67,226.29c-1.68-2.01-3.36-4.36-3.69-5.37h3.69v5.37h0Z" data-layer-id="1256769704375"/>
      <path class="cls-5" d="M112.48,232.5c-2.18,2.01-4.36,3.19-7.05,2.69-6.88-1.51-8.06-4.53-10.07-6.88-.5-.5-1.01-1.18-1.51-1.85v-5.37h18.8v11.42h-.17Z" data-layer-id="9960446404416"/>
      <path class="cls-4" d="M131.28,221.75c-1.51,0-3.53.34-6.21,1.18-5.71,1.85-9.23,6.38-12.59,9.57v-11.42h18.8v.67h0Z" data-layer-id="2474657504455"/>
      <path class="cls-4" d="M144.37,221.08c-1.01.5-2.01,1.01-3.02,1.18-4.53,1.18-6.04-.5-10.07-.5v-.84h13.09v.17ZM144.88,239.88c2.01-2.69,3.86-5.04,5.2-7.22v7.22h-5.2Z" data-layer-id="1506704304495"/>
      <path class="cls-3" d="M150.08,232.66c2.01-3.02,3.36-5.71,3.53-8.39.17-1.18.17-2.35.34-3.19h14.94v18.8h-18.8v-7.22h0Z" data-layer-id="8682009504531"/>
      <polygon class="cls-5" data-layer-id="1580887504572" points="168.88 221.08 187.85 221.08 187.85 239.88 168.88 239.88 168.88 221.08"/>
      <polygon class="cls-4" data-layer-id="0105422504611" points="187.85 221.08 206.66 221.08 206.66 239.88 187.85 239.88 187.85 221.08"/>
      <path class="cls-7" d="M222.94,221.08c.17,3.02.17,6.04.17,9.07,0,3.36-.17,6.55-.5,9.74h-15.95v-18.8h16.28Z" data-layer-id="0913959304650"/>
      <path class="cls-5" d="M131.45,258.69c4.7-7.72,9.57-13.77,13.43-18.8h5.2v18.8h-18.63Z" data-layer-id="1488709504690"/>
      <polygon class="cls-4" data-layer-id="5652405204732" points="150.08 239.88 168.88 239.88 168.88 258.69 150.08 258.69 150.08 239.88"/>
      <polygon class="cls-3" data-layer-id="2985644904771" points="168.88 239.88 187.85 239.88 187.85 258.69 168.88 258.69 168.88 239.88"/>
      <polygon class="cls-7" data-layer-id="6492081104808" points="187.85 239.88 206.66 239.88 206.66 258.69 187.85 258.69 187.85 239.88"/>
      <path class="cls-7" d="M222.6,239.88c-.34,6.55-1.01,12.76-1.85,18.8h-14.27v-18.8h16.12Z" data-layer-id="8737435104847"/>
      <path class="cls-4" d="M124.9,277.49c0-4.7,1.01-9.23,3.36-13.43,1.01-1.85,2.01-3.53,3.02-5.04v18.47h-6.38Z" data-layer-id="6874882604924"/>
      <polygon class="cls-3" data-layer-id="5057745504963" points="131.28 259.02 131.45 258.69 150.08 258.69 150.08 277.49 131.28 277.49 131.28 259.02"/>
      <polygon class="cls-7" data-layer-id="3279053705005" points="150.08 258.69 168.88 258.69 168.88 277.49 150.08 277.49 150.08 258.69"/>
      <polygon class="cls-7" data-layer-id="3737699305045" points="168.88 258.69 187.85 258.69 187.85 277.49 168.88 277.49 168.88 258.69"/>
      <polygon class="cls-7" data-layer-id="4386371305084" points="187.85 258.69 206.66 258.69 206.66 277.49 187.85 277.49 187.85 258.69"/>
      <polygon class="cls-8" data-layer-id="8273031705128" points="112.14 352.87 112.48 352.7 112.48 352.87 112.14 352.87"/>
      <path class="cls-6" d="M112.48,371h-4.2s-5.2-10.91,0-15.28c1.18-1.01,2.52-1.85,4.03-2.85h.34v18.13h-.17Z" data-layer-id="9428488705172"/>
      <path class="cls-7" d="M128.42,296.29c-2.01-6.04-3.53-12.59-3.53-18.8h6.38v18.8h-2.85Z" data-layer-id="5110112705213"/>
      <path class="cls-8" d="M131.28,303.51c-1.01-2.18-2.01-4.7-2.85-7.22h2.85v7.22h0Z" data-layer-id="6989821405253"/>
      <path class="cls-6" d="M120.7,334.06c.84-3.02,5.37-3.53,5.37-3.53,0,0,2.69-1.18,5.2-2.52v6.04h-10.58ZM131.28,322.31c-1.18-.67-2.01-1.85-2.01-3.36h0c0-1.51.84-2.69,2.01-3.36v6.72h0Z" data-layer-id="7591837205292"/>
      <path class="cls-6" d="M112.48,352.7c5.04-3.02,10.74-5.54,11.58-8.06,1.01-3.36.34-4.53.34-4.53,0,0-3.86-.84-3.86-4.87,0-.34,0-.84.17-1.18h10.58v18.8l-18.8-.17h0Z" data-layer-id="1112664905331"/>
      <polygon class="cls-7" data-layer-id="3453956605371" points="131.28 370.66 112.48 371 112.48 352.87 131.28 352.87 131.28 370.66"/>
      <polygon class="cls-7" data-layer-id="8429871805410" points="131.28 277.49 150.08 277.49 150.08 296.29 131.28 296.29 131.28 277.49"/>
      <path class="cls-7" d="M132.45,315.26h4.7c-1.68-2.69-3.86-6.72-5.88-11.58v-7.22h18.8v18.8h-17.63Z" data-layer-id="4554280105452"/>
      <path class="cls-8" d="M131.28,328.02c2.18-1.01,4.2-2.18,4.53-3.02.5-.84.5-1.68.5-2.18h-3.19c-.67,0-1.34-.17-1.85-.5v-6.72c.34-.17.84-.34,1.18-.5h17.63v18.97h-18.8v-6.04h0Z" data-layer-id="4074787505490"/>
      <polygon class="cls-7" data-layer-id="5019421505529" points="131.28 334.06 150.08 334.06 150.08 352.87 131.28 352.87 131.28 334.06"/>
      <polygon class="cls-6" data-layer-id="6521432805566" points="150.08 370.49 131.28 370.66 131.28 352.87 150.08 352.87 150.08 370.49"/>
      <polygon class="cls-8" data-layer-id="5593197905606" points="150.08 277.49 168.88 277.49 168.88 296.29 150.08 296.29 150.08 277.49"/>
      <polygon class="cls-6" data-layer-id="2614336805644" points="150.08 296.29 168.88 296.29 168.88 315.26 150.08 315.26 150.08 296.29"/>
      <polygon class="cls-8" data-layer-id="4174668205683" points="150.08 334.06 168.88 334.06 168.88 352.87 150.08 352.87 150.08 334.06"/>
      <polygon class="cls-7" data-layer-id="9476988705722" points="168.88 370.33 150.08 370.49 150.08 352.87 168.88 352.87 168.88 370.33"/>
      <polygon class="cls-7" data-layer-id="1347872205761" points="168.88 296.29 187.85 296.29 187.85 315.26 168.88 315.26 168.88 296.29"/>
      <polygon class="cls-2" data-layer-id="9174368505800" points="168.88 315.26 187.85 315.26 187.85 334.06 168.88 334.06 168.88 315.26"/>
      <polygon class="cls-8" data-layer-id="9777899105838" points="168.88 334.06 187.85 334.06 187.85 352.87 168.88 352.87 168.88 334.06"/>
      <polygon class="cls-8" data-layer-id="2865171405876" points="187.85 370.49 171.9 370.33 168.88 370.33 168.88 352.87 187.85 352.87 187.85 370.49"/>
      <polygon class="cls-7" data-layer-id="0648442605918" points="187.85 277.49 206.66 277.49 206.66 296.29 187.85 296.29 187.85 277.49"/>
      <polygon class="cls-5" data-layer-id="1111270105958" points="187.85 296.29 206.66 296.29 206.66 315.26 187.85 315.26 187.85 296.29"/>
      <polygon class="cls-7" data-layer-id="3582058405999" points="187.85 315.26 206.66 315.26 206.66 334.06 187.85 334.06 187.85 315.26"/>
      <polygon class="cls-2" data-layer-id="4374946706038" points="187.85 334.06 206.66 334.06 206.66 352.87 187.85 352.87 187.85 334.06"/>
      <polygon class="cls-7" data-layer-id="2827769406076" points="206.66 370.66 187.85 370.49 187.85 352.87 206.66 352.87 206.66 370.66"/>
      <path class="cls-7" d="M217.74,277.49c-1.34,7.05-2.69,13.26-4.2,18.8h-7.05v-18.8h11.25Z" data-layer-id="7618150706113"/>
      <path class="cls-7" d="M213.71,296.29c-2.18,8.73-4.2,15.28-5.37,18.8h2.69-4.53v-18.8h7.22Z" data-layer-id="2425248406151"/>
      <path class="cls-7" d="M211.19,315.26c1.85.34,3.19,1.85,3.19,3.69h0c0,2.01-1.68,3.86-3.86,3.86h-3.02c0,.5,0,1.34.5,2.18.84,1.68,9.74,5.37,9.74,5.37,0,0,4.53.5,5.37,3.53h-16.62v-18.8h4.7v.17Z" data-layer-id="4938035406189"/>
      <path class="cls-7" d="M223.28,334.06c.17.34.17.67.17,1.18,0,4.03-3.86,4.87-3.86,4.87,0,0-.67,1.34.34,4.53.5,1.51,2.85,3.02,5.71,4.7v3.53h-18.8v-18.8h16.45Z" data-layer-id="7332484106228"/>
      <polygon class="cls-8" data-layer-id="0697830206266" points="225.46 370.83 206.66 370.66 206.66 352.87 225.46 352.87 225.46 370.83"/>
      <path class="cls-7" d="M225.46,349.34c2.01,1.18,4.2,2.35,6.21,3.53h-6.21v-3.53h0Z" data-layer-id="7413048306305"/>
      <path class="cls-8" d="M231.67,352.87c1.51.84,2.85,1.85,4.03,2.85,5.2,4.36,0,15.28,0,15.28l-10.24-.17v-17.96h6.21Z" data-layer-id="2042908806344"/>
      <polygon class="cls-7" data-layer-id="1397124706381" points="237.38 232.33 261.22 232.33 261.22 256 237.38 256 237.38 232.33"/>
      <polygon class="cls-7" data-layer-id="3644758806422" points="227.81 260.36 248.29 260.36 248.29 280.85 227.81 280.85 227.81 260.36"/>
      <polygon class="cls-7" data-layer-id="9981555306460" points="227.47 207.82 243.92 207.82 243.92 224.1 227.47 224.1 227.47 207.82"/>
      <polygon class="cls-4" data-layer-id="5668031706499" points="255.34 204.13 271.62 204.13 271.62 220.58 255.34 220.58 255.34 204.13"/>
      <polygon class="cls-4" data-layer-id="8652755206538" points="233.68 184.65 249.97 184.65 249.97 200.94 233.68 200.94 233.68 184.65"/>
      <polygon class="cls-4" data-layer-id="1154208906580" points="213.04 160.31 227.64 160.31 227.64 175.08 213.04 175.08 213.04 160.31"/>
      <polygon class="cls-5" data-layer-id="7676667606618" points="241.07 165.18 255.68 165.18 255.68 179.78 241.07 179.78 241.07 165.18"/>
      <polygon class="cls-4" data-layer-id="2566305806655" points="209.34 203.62 217.9 203.62 217.9 212.18 209.34 212.18 209.34 203.62"/>
      <polygon class="cls-3" data-layer-id="5271695406695" points="158.14 165.01 168.38 165.01 168.38 175.25 158.14 175.25 158.14 165.01"/>
      <polygon class="cls-5" data-layer-id="7678262206736" points="190.54 167.36 204.64 167.36 204.64 181.46 190.54 181.46 190.54 167.36"/>
      <polygon class="cls-5" data-layer-id="5697647206778" points="173.92 141 188.02 141 188.02 155.1 173.92 155.1 173.92 141"/>
      <polygon class="cls-7" data-layer-id="5515679906818" points="219.92 285.88 231.17 285.88 231.17 297.3 219.92 297.3 219.92 285.88"/>
    </g>
  </g>
  <g>
    <text class="cls-15" transform="translate(291.67 265.22)"><tspan x="0" y="0">SUBS</tspan><tspan class="cls-11" x="187.48" y="0">P</tspan><tspan class="cls-14" x="229.68" y="0">A</tspan><tspan x="276.62" y="0">CE </tspan><tspan class="cls-16" x="385.63" y="0">L</tspan><tspan class="cls-10" x="428.54" y="0">A</tspan><tspan x="469" y="0">TTICE</tspan></text>
    <text class="cls-9" transform="translate(295.27 303.47)"><tspan x="0" y="0">Command the Fleet. Control the </tspan><tspan class="cls-13" x="518.09" y="0">L</tspan><tspan x="536.41" y="0">attic</tspan><tspan class="cls-12" x="611.55" y="0">e</tspan><tspan x="629.99" y="0">.</tspan></text>
  </g>
</svg>