<?xml version="1.0" encoding="UTF-8"?><svg id="Layer_1" xmlns="http://www.w3.org/2000/svg" viewBox="0 0 1024 256"><defs><style>.cls-1{letter-spacing:0em;}.cls-2,.cls-3,.cls-4{font-family:AllRoundGothic-XLig, 'All Round Gothic';font-size:49.5px;}.cls-2,.cls-5{fill:#231f20;}.cls-6,.cls-4{fill:none;}.cls-6,.cls-7,.cls-5{font-family:SolPro-Regular, 'Sol Pro';font-size:108px;}.cls-8{letter-spacing:-.1em;}.cls-9{letter-spacing:-.08em;}.cls-10{letter-spacing:-.03em;}.cls-11{letter-spacing:0em;}.cls-12{letter-spacing:-.01em;}.cls-13{letter-spacing:.02em;}</style></defs><text class="cls-7" transform="translate(29.61 141.83)"><tspan x="0" y="0">SUBS</tspan><tspan class="cls-9" x="281.23" y="0">P</tspan><tspan class="cls-12" x="344.52" y="0">A</tspan><tspan x="414.93" y="0">CE </tspan><tspan class="cls-13" x="578.44" y="0">L</tspan><tspan class="cls-8" x="642.81" y="0">A</tspan><tspan x="703.5" y="0">TTICE</tspan></text><text class="cls-5" transform="translate(29.61 141.83)"><tspan x="0" y="0">SUBS</tspan><tspan class="cls-9" x="281.23" y="0">P</tspan><tspan class="cls-12" x="344.52" y="0">A</tspan><tspan x="414.93" y="0">CE </tspan><tspan class="cls-13" x="578.44" y="0">L</tspan><tspan class="cls-8" x="642.81" y="0">A</tspan><tspan x="703.5" y="0">TTICE</tspan></text><text class="cls-6" transform="translate(29.61 141.83)"><tspan x="0" y="0">SUBS</tspan><tspan class="cls-9" x="281.23" y="0">P</tspan><tspan class="cls-12" x="344.52" y="0">A</tspan><tspan x="414.93" y="0">CE </tspan><tspan class="cls-13" x="578.44" y="0">L</tspan><tspan class="cls-8" x="642.81" y="0">A</tspan><tspan x="703.5" y="0">TTICE</tspan></text><text class="cls-3" transform="translate(35.01 199.2)"><tspan x="0" y="0">Command the Fleet. Control the </tspan><tspan class="cls-11" x="777.14" y="0">L</tspan><tspan x="804.61" y="0">attic</tspan><tspan class="cls-10" x="917.32" y="0">e</tspan><tspan class="cls-1" x="944.99" y="0">.</tspan></text><text class="cls-2" transform="translate(35.01 199.2)"><tspan x="0" y="0">Command the Fleet. Control the </tspan><tspan class="cls-11" x="777.14" y="0">L</tspan><tspan x="804.61" y="0">attic</tspan><tspan class="cls-10" x="917.32" y="0">e</tspan><tspan class="cls-1" x="944.99" y="0">.</tspan></text><text class="cls-4" transform="translate(35.01 199.2)"><tspan x="0" y="0">Command the Fleet. Control the </tspan><tspan class="cls-11" x="777.14" y="0">L</tspan><tspan x="804.61" y="0">attic</tspan><tspan class="cls-10" x="917.32" y="0">e</tspan><tspan class="cls-1" x="944.99" y="0">.</tspan></text></svg>